<?xml version="1.0" standalone="no"?>
<!DOCTYPE svg PUBLIC "-//W3C//DTD SVG 20010904//EN"
 "http://www.w3.org/TR/2001/REC-SVG-20010904/DTD/svg10.dtd">
<svg version="1.0" xmlns="http://www.w3.org/2000/svg"
 width="174.000000pt" height="97.000000pt" viewBox="0 0 174.000000 97.000000"
 preserveAspectRatio="xMidYMid meet">

<g transform="translate(0.000000,97.000000) scale(0.100000,-0.100000)"
fill="#000000" stroke="none">
<path d="M766 955 c-149 -38 -283 -140 -342 -261 -27 -55 -29 -67 -29 -175 l0
-116 44 -88 c79 -156 199 -252 367 -295 131 -34 189 -27 332 41 69 33 82 43
82 64 0 40 -32 40 -117 -2 -66 -33 -88 -38 -158 -41 -86 -4 -163 11 -171 32
-3 7 6 30 20 51 35 51 43 89 50 240 6 125 8 132 40 185 19 30 38 56 44 58 6 2
12 -59 14 -165 5 -202 17 -248 63 -248 l30 0 5 92 c3 50 7 93 10 96 16 14 72
37 93 37 23 0 67 -37 67 -56 0 -5 -17 -18 -37 -29 -84 -46 -101 -75 -63 -110
15 -14 31 -17 70 -13 61 6 86 27 104 87 8 25 24 69 37 96 17 37 22 69 23 125
1 191 -103 324 -303 386 -70 22 -206 26 -275 9z m283 -73 c168 -65 255 -188
237 -335 -10 -79 -16 -84 -65 -50 -35 24 -40 32 -35 53 3 14 8 49 11 77 9 96
-49 151 -146 140 -46 -5 -50 -4 -55 19 -5 18 -13 24 -35 24 -24 0 -30 -5 -35
-31 -6 -33 -66 -139 -78 -139 -5 0 -8 17 -8 38 0 75 -53 143 -135 176 -20 7
14 29 67 42 74 19 209 12 277 -14z m-291 -135 c12 -24 11 -33 -8 -72 -40 -83
-124 -137 -158 -103 -18 18 -14 74 8 117 44 88 129 119 158 58z m362 -57 c35
-35 16 -122 -34 -155 -39 -26 -59 -16 -68 32 -17 101 47 178 102 123z m-614
-56 c-11 -85 37 -146 119 -148 32 -1 51 7 93 37 47 35 52 37 52 18 0 -11 -14
-36 -31 -56 -18 -20 -60 -83 -94 -141 l-62 -104 -35 39 c-55 60 -81 139 -82
246 -1 68 3 98 17 123 24 44 31 40 23 -14z m263 -323 c-13 -63 -44 -131 -60
-131 -23 0 -49 22 -49 41 0 25 56 137 83 167 l21 23 8 -22 c5 -13 4 -46 -3
-78z"/>
<path d="M1313 254 c-7 -18 7 -46 25 -52 8 -2 12 9 12 32 0 38 -25 51 -37 20z"/>
</g>
</svg>
